<?xml version="1.0" encoding="utf-8"?>
<!-- Generator: Adobe Illustrator 21.1.0, SVG Export Plug-In . SVG Version: 6.00 Build 0)  -->
<svg version="1.1" id="Layer_1" xmlns="http://www.w3.org/2000/svg" xmlns:xlink="http://www.w3.org/1999/xlink" x="0px" y="0px"
	 viewBox="0 0 60.19 60.19" style="enable-background:new 0 0 60.19 60.19;" xml:space="preserve">
<style type="text/css">
	.st0{fill:#FFFFFF;}
	.st1{clip-path:url(#SVGID_2_);fill:#9D0B0F;}
	.st2{clip-path:url(#SVGID_2_);fill:#FFFFFF;}
	.st3{clip-path:url(#SVGID_2_);fill:#E49F24;}
</style>
<rect class="st0" width="60.19" height="60.19"/>
<g>
	<defs>
		<rect id="SVGID_1_" width="60.19" height="60.19"/>
	</defs>
	<clipPath id="SVGID_2_">
		<use xlink:href="#SVGID_1_"  style="overflow:visible;"/>
	</clipPath>
	<rect y="0.01" class="st1" width="60.18" height="60.16"/>
	<path class="st2" d="M12.62,54.76l-0.12,3.81H1.65v-0.61c0.68,0,1.05-0.12,1.24-0.3c0.37-0.37,0.42-0.61,0.42-6.99
		c0-6.39-0.07-6.6-0.44-6.97c-0.19-0.19-0.54-0.33-1.22-0.33v-0.63H9.3v0.63c-0.73-0.02-1.31,0.09-1.5,0.28
		c-0.37,0.37-0.42,0.87-0.42,7.25v4.58c0,2.01,0.14,2.2,1.57,2.2h0.58c1.22,0,1.97-1.4,2.46-2.6l0.09-0.33H12.62"/>
	<path class="st3" d="M9.84,46.83l-0.05-0.51c1.66-0.07,3.46-1.08,3.86-2.43c0.09-0.28,0.05-0.68-0.19-0.68
		c-0.44,0-0.63,0.44-1.92,0.44c-1.71,0-2.27-1.38-2.27-2.13c0-1.4,1.01-2.5,2.53-2.5c1.78,0,3.02,1.45,3.02,3.49
		C14.82,45.12,12.11,46.83,9.84,46.83"/>
	<path class="st2" d="M26.4,55.23l-0.12,3.34H15.19v-0.61c0.68,0,1.05-0.12,1.24-0.3c0.37-0.37,0.42-0.61,0.42-6.99
		c0-6.39-0.05-6.64-0.42-7.02c-0.19-0.19-0.56-0.28-1.24-0.28v-0.63h11.09l0.12,3.34h-0.51l-0.07-0.33c-0.26-1.19-1.19-2.1-2.57-2.1
		h-2.32v6.25h1.47c1.78,0,2.48-0.42,2.81-1.92h0.51v4.75h-0.51c-0.33-1.47-1.03-1.94-2.81-1.94h-1.47v4.7c0,2.01,0.14,2.2,1.57,2.2
		h0.89c1.1,0,2.06-0.94,2.41-2.13l0.09-0.33H26.4"/>
	<path class="st2" d="M34.02,51.21c-1.19,0-1.59-0.91-1.59-1.54c0-0.73,0.33-1.38,0.94-1.57c-0.14-0.09-0.44-0.21-0.84-0.21
		c-1.26,0-2.06,1.54-2.06,5.22c0,2.85,0.73,4.49,2.57,4.49c1.05,0,2.13-0.87,2.32-1.1l0.28,0.28c-0.65,1.12-1.59,2.22-3.98,2.22
		c-4.16,0-4.98-3.79-4.98-5.71c0-2.9,1.36-6.18,5.5-6.18c2.41,0,3.51,1.17,3.51,2.41C35.68,50.69,34.77,51.21,34.02,51.21"/>
	<path class="st2" d="M48.55,58.55h-5.22v-7.56c0-1.47-0.19-2.1-1.15-2.1c-1.17,0-1.68,0.87-1.75,1.47v-0.02v1.08
		c0.02,5.75,0,5.85,0.35,6.2c0.16,0.16,0.51,0.28,1.12,0.28v0.65h-3.6l-3.09,0.02V57.9c0.61,0,0.96-0.12,1.12-0.28
		c0.35-0.35,0.33-2.01,0.33-7.77v-4.51c0-1.29-0.05-1.24-0.84-1.61l-0.65-0.23v-0.42l5.24-1.03l0.02,6.71
		c0.4-0.65,1.33-1.73,3.63-1.73c1.75,0,3.02,1.17,3.02,3.39v0.98c0,5.75,0,5.87,0.35,6.22c0.16,0.16,0.51,0.28,1.12,0.28V58.55"/>
	<path class="st2" d="M53.32,58.97c-2.57,0-5.45-1.8-5.45-5.82c0-4.73,3.27-6.04,5.61-6.04c2.55,0,5.47,1.66,5.47,5.8
		C58.96,56.4,56.62,58.97,53.32,58.97 M53.49,47.91c-1.26,0-1.73,1.33-1.8,4.96c-0.09,4.12,0.68,5.38,1.71,5.38
		c1.01,0,1.75-1.03,1.75-5.29C55.15,49.22,54.59,47.91,53.49,47.91z"/>
</g>
</svg>
