<?xml version="1.0" encoding="UTF-8"?>
<svg xmlns="http://www.w3.org/2000/svg" viewBox="0 0 400 500" role="img" aria-label="Tranche d'agrume">
  <title>Citrus slice</title>
  <g fill="none" stroke="currentColor" stroke-width="1.4" stroke-linecap="round">
    <circle cx="200" cy="250" r="140" fill="currentColor" fill-opacity="0.04"/>
    <circle cx="200" cy="250" r="140"/>
    <circle cx="200" cy="250" r="115" stroke-width="0.8" opacity="0.7"/>
    <g stroke-width="1.1" opacity="0.85">
      <line x1="200" y1="135" x2="200" y2="365"/>
      <line x1="85" y1="250" x2="315" y2="250"/>
      <line x1="121" y1="171" x2="279" y2="329"/>
      <line x1="121" y1="329" x2="279" y2="171"/>
      <line x1="118" y1="222" x2="282" y2="278" stroke-width="0.6" opacity="0.5"/>
      <line x1="118" y1="278" x2="282" y2="222" stroke-width="0.6" opacity="0.5"/>
    </g>
    <g fill="currentColor" stroke="none">
      <ellipse cx="200" cy="200" rx="6" ry="14"/>
      <ellipse cx="160" cy="220" rx="6" ry="14" transform="rotate(-30 160 220)"/>
      <ellipse cx="240" cy="220" rx="6" ry="14" transform="rotate(30 240 220)"/>
      <ellipse cx="155" cy="280" rx="6" ry="14" transform="rotate(-50 155 280)"/>
      <ellipse cx="245" cy="280" rx="6" ry="14" transform="rotate(50 245 280)"/>
      <ellipse cx="200" cy="305" rx="6" ry="14"/>
    </g>
  </g>
</svg>
