<?xml version="1.0" encoding="UTF-8"?>
<svg xmlns="http://www.w3.org/2000/svg" viewBox="0 0 400 500" role="img" aria-label="Épis de blé">
  <title>Grain</title>
  <g fill="none" stroke="currentColor" stroke-width="1.4" stroke-linecap="round">
    <line x1="200" y1="120" x2="200" y2="470"/>
    <g stroke-width="1.6">
      <path d="M 200 130 Q 165 145 168 175 Q 180 170 200 165"/>
      <path d="M 200 130 Q 235 145 232 175 Q 220 170 200 165"/>
      <path d="M 200 165 Q 158 180 162 215 Q 178 208 200 200"/>
      <path d="M 200 165 Q 242 180 238 215 Q 222 208 200 200"/>
      <path d="M 200 200 Q 152 218 156 256 Q 175 248 200 238"/>
      <path d="M 200 200 Q 248 218 244 256 Q 225 248 200 238"/>
      <path d="M 200 238 Q 148 258 152 298 Q 174 290 200 278"/>
      <path d="M 200 238 Q 252 258 248 298 Q 226 290 200 278"/>
      <path d="M 200 278 Q 148 300 152 342 Q 175 332 200 320"/>
      <path d="M 200 278 Q 252 300 248 342 Q 225 332 200 320"/>
      <path d="M 200 320 Q 152 344 158 386 Q 178 374 200 360"/>
      <path d="M 200 320 Q 248 344 242 386 Q 222 374 200 360"/>
      <path d="M 200 360 Q 162 386 168 422 Q 184 410 200 398"/>
      <path d="M 200 360 Q 238 386 232 422 Q 216 410 200 398"/>
    </g>
    <g stroke-width="1" opacity="0.6">
      <path d="M 200 90 Q 175 75 170 50"/>
      <path d="M 200 90 Q 200 60 200 38"/>
      <path d="M 200 90 Q 225 75 230 50"/>
      <path d="M 200 90 Q 188 70 178 60"/>
      <path d="M 200 90 Q 212 70 222 60"/>
    </g>
  </g>
</svg>
