<?xml version="1.0" encoding="UTF-8"?>
<svg xmlns="http://www.w3.org/2000/svg" viewBox="0 0 400 500" role="img" aria-label="Bol d'épices">
  <title>Spice bowl</title>
  <g fill="none" stroke="currentColor" stroke-width="1.4" stroke-linecap="round">
    <path d="M 90 320 Q 90 410 200 410 Q 310 410 310 320 Z" fill="currentColor" fill-opacity="0.06"/>
    <ellipse cx="200" cy="320" rx="110" ry="20"/>
    <ellipse cx="200" cy="320" rx="92" ry="14" stroke-width="0.8" opacity="0.5"/>
    <g fill="currentColor" stroke="none">
      <circle cx="160" cy="318" r="2.5" opacity="0.8"/>
      <circle cx="180" cy="316" r="3" opacity="0.85"/>
      <circle cx="200" cy="319" r="2.6" opacity="0.75"/>
      <circle cx="220" cy="316" r="3.2" opacity="0.85"/>
      <circle cx="242" cy="320" r="2.4" opacity="0.7"/>
      <circle cx="148" cy="320" r="2.2" opacity="0.6"/>
      <circle cx="170" cy="322" r="2.8" opacity="0.85"/>
      <circle cx="192" cy="322" r="2.4" opacity="0.7"/>
      <circle cx="212" cy="321" r="2.7" opacity="0.85"/>
      <circle cx="232" cy="322" r="2.5" opacity="0.75"/>
      <circle cx="252" cy="320" r="2.3" opacity="0.7"/>
    </g>
    <g stroke-width="1" opacity="0.55">
      <path d="M 175 270 Q 180 240 198 220"/>
      <path d="M 200 280 Q 200 240 210 200"/>
      <path d="M 225 275 Q 222 240 215 215"/>
    </g>
  </g>
</svg>
